#bottom back left
v -0.500000 -0.500000 0.500000
#bottom back right
v 0.500000 -0.500000 0.500000
#top back left
v -0.500000 0.500000 0.500000
#top back right
v 0.500000 0.500000 0.500000
#top front left
v -0.500000 0.500000 -0.500000
#top front right
v 0.500000 0.500000 -0.500000
#bottom front left
v -0.500000 -0.500000 -0.500000
#bottom front right
v 0.500000 -0.500000 -0.500000

vt 0.5 0.3333333
vt 0.25 0.333333
vt 0.5 0.666666
vt 0.25 0.666666
#
vt 0.25 0.333333
vt 0.0 0.3333333
vt 0.25 0.666666
vt 0.0 0.666666
#
vt 0.75 0.333333
vt 0.5 0.3333333
vt 0.75 0.666666
vt 0.5 0.666666
#
vt 1.0 0.333333
vt 0.75 0.3333333
vt 1.0 0.666666
vt 0.75 0.666666

vn 0.000000 0.000000 1.000000
vn 0.000000 1.000000 0.000000
vn 0.000000 0.000000 -1.000000
vn 0.000000 -1.000000 0.000000
vn 1.000000 0.000000 0.000000
vn -1.000000 0.000000 0.000000

#back
s 1
f 1/13/1 2/14/1 3/15/1
f 3/15/1 2/14/1 4/16/1
#top
s 2
f 3/1/2 4/2/2 5/3/2
f 5/3/2 4/2/2 6/4/2
#front
s 3
f 5/4/3 6/3/3 7/2/3
f 7/2/3 6/3/3 8/1/3
#bottom
s 4
f 7/1/4 8/2/4 1/3/4
f 1/3/4 8/2/4 2/4/4
#right
s 5
f 2/9/5 8/10/5 4/11/5
f 4/11/5 8/10/5 6/12/5
#left
s 6
f 7/5/6 1/6/6 5/7/6
f 5/7/6 1/6/6 3/8/6
